<svg xmlns="http://www.w3.org/2000/svg" xmlns:svgjs="http://svgjs.com/svgjs" xmlns:xlink="http://www.w3.org/1999/xlink" width="288" height="288"><svg xmlns="http://www.w3.org/2000/svg" width="288" height="288" viewBox="0 0 1399.54 25.39"><g class="color000 svgShape" data-name="Layer 2"><path fill="#198754" d="M0,25.39V15a10.79,10.79,0,0,1,1-3.2c.57-1.66,2.25-1.89,5.79-2.17,5.11-.4,9.07-1.93,14.12-2.26,3.11-.2,6.48-.31,9.53-.68,1.43-.17,2.57-.72,4-.91a39.41,39.41,0,0,1,5.55-.11,65.33,65.33,0,0,1,8,.44c2.57.28,5.24,0,7.8.25.73.06,2,.36,3,.44,1.67.14,2.68.17,4.39.42,5.86.87,8.91,2.06,13-.6,1.35-.89.11-1.2,3.1-.91,2.38.23,5.69,1.42,7.74,2,3.91,1.08,5.31.8,9.7.37,3.07-.3,6.48-.13,9.65-.13,5.49,0,11,.11,16.49,0,4.6-.06,7.75-.74,11.95-1.09,5.09-.42,10.28.52,15.19,1,5.67.59,11.23,1.38,16.83,1.85a156.47,156.47,0,0,0,19.44.49c8.5-.38,14.26-3.11,22.31-4a67.49,67.49,0,0,1,12.31,0c2.74.34,5.58,1.61,8.18,2.12a45.71,45.71,0,0,0,10.62.69c4.78-.15,9.4-.87,14-1.33a49.1,49.1,0,0,1,8-.44c1,.08,2.2.43,2.81.48,2.25.19,2.48-.07,4.72-.44a69.37,69.37,0,0,1,8.77-1,63.67,63.67,0,0,1,11.64.13c2.4.32,6,1.4,8.58,1.38,2.87,0,2.56-.7,5.05-1.1,4.88-.77,10.3,1.87,15.06.82,4.12-.91,4.63-3.91,9.47-4.27s6.05,2.25,9.45,2.87a15.55,15.55,0,0,0,3.7-.09l.53-.34a9.29,9.29,0,0,1,3.82.47c5.47,1.07,8.52.42,13.85-.56,4.27-.78,8.78-1.76,13.27-.74,2.54.58,4.11,1.65,6.65,2.31a112.08,112.08,0,0,0,21.12,2.91c4.38.22,9.29.55,13.49-.19,4-.7,6.58-1.88,11.36-1.32,1.72.2,3.52.73,5.13,1,1.86.36,2.63.32,4.36.54,7,.9,13.1,2,20,.3a49.21,49.21,0,0,1,8.34-1.41c3.82-.35,4.87-1.23,7.35-2.31A21.85,21.85,0,0,1,478,5c2.87,0,3.21.72,5.46,1.23,1.87.41,3.19.42,5.11.67,1.59.21,2.24.72,4.07.36a36.8,36.8,0,0,0,3.93-1.78c2.86-1,4.74-1.87,8.16-2.14a30.7,30.7,0,0,0,7-1.25c2.61-.73,5.81-2,9.3-1.62s5.66,2.16,9,2.79a40.64,40.64,0,0,0,14.25.08c9.85-1.74,22.29-1.57,32.42-.41,3.27.38,6.29.48,9.37,1.1,4.53.9,7.67,1.83,12.87,1.62,4.33-.17,9.25-1.12,13.69-.64,3.1.33,5,1.55,8.34,1.78,2.85.2,5.41-.32,8.11.35,3.19.79,4.28,2.46,6.76,3.5,5.22,2.18,11.49-1.44,17.56-1.07,1.48.09,2.54.51,4,.64,1.63.15,3.87,0,5.55,0a30.86,30.86,0,0,1,7.74.73c3.22.68,7.38.44,11.21.42a23,23,0,0,1,5.26.22c2.12.41,2.68,1.33,5.32,1.56,6.33.58,13.59-2.13,18.54-3.41,2.83-.72,1.8-.63,4.5-.54,4.48.15,6.21.84,10.34-.38,2.94-.87,4.76-1.64,8.49-1,5.52.88,10.67,2,16.73,1.82s12.53,1.17,18.5.54a80.22,80.22,0,0,0,11.28-2.33l5.17-1.51,2.53-.19a45.89,45.89,0,0,1,11.77-1A123.28,123.28,0,0,1,815.91,7c2.15.37,4.41.59,6.42,1.11s3.77,1.46,5.83,2c5.92,1.69,12.35-.59,18-1.64,4.74-.87,7.6.12,12.63,0,5.77-.07,6.13-1.33,9.83-2.77a29.09,29.09,0,0,0,14.77-1.13A21.38,21.38,0,0,0,887,3.27c1.12-.66.65-2.22,4-1.52a3.75,3.75,0,0,0,1.74,1.09c2.55.85,6.92.57,9.86.55,1.7,0,3.4,0,5.1,0,1.05-.08,3-.51,3.8-.54,4.65-.19,7.91,3.4,12.4,3.89,5.54.6,8.94-1.54,13.62-2.34,5-.84,3.78.48,7.8,1.6,4.5,1.25,11,.79,16,.81,4.32,0,8.19-.48,12.39-.6,3.35-.09,6.81,0,10.17,0a53.81,53.81,0,0,1,10.49,1.17,98.38,98.38,0,0,0,12.91,1.14c6.39.18,12.46,1.33,18.93,1.29,3.41,0,6.15-1,9.48-1.13,3.14-.14,5.53-.45,8.61-.86,4-.52,7.88-1.45,11.89-2,4.24-.61,8.79-.56,12.92-1.21,4.93-.78,9-2.82,13.13-4a28.33,28.33,0,0,1,8.08-.56c2.13.15,4.36.7,6.35,1,2.61.44,5.37.58,8,1,2.3.37,4.59.91,7,1.15,2.7.29,5.41,0,8.14.12,6.23.32,9.75,4,16.15,4.63a69.4,69.4,0,0,0,13.58-.63,93,93,0,0,1,12.41-.58c4.45,0,7.92.92,12.26,1.32s8.62.41,13.17.4a68.27,68.27,0,0,1,8.32.45c7,.74,10.21-.9,15.81-2.24,4.1-1,3.66.46,6.56,1.54a39.81,39.81,0,0,0,11.45,2.62c8,.19,13.09-3.37,19.93-4.1,3.74-.4,5.07.7,7.79,1.48,3.58,1,9.74,1.36,14,1.41a34.1,34.1,0,0,0,10.53-1.75c2.15-.61,1.93-1.16,4.55-.67s4.18,2.11,6.39,2.88c4.39,1.51,10.74,1.89,16.14,2.26,5,.33,6.27-.12,9.64-1.6,2.47-1.08,3.24-1.84,6.69-1.32,4.56.7,7.1,1.52,12.19,1.35a83.47,83.47,0,0,0,9.5-1c4.15-.61,8-.5,12.23-.84,5.9-.47,12.81-.82,18.8-.72,5,.09,9.78.53,14.88.53h6.88V25.39Z" class="colorf3efe4 svgShape" data-name="Layer 1"/></g></svg></svg>